<?xml version="1.0" standalone="no"?>
<!DOCTYPE svg PUBLIC "-//W3C//DTD SVG 20010904//EN"
 "http://www.w3.org/TR/2001/REC-SVG-20010904/DTD/svg10.dtd">
<svg version="1.0" xmlns="http://www.w3.org/2000/svg"
 width="1888.000000pt" height="1888.000000pt" viewBox="0 0 1888.000000 1888.000000"
 preserveAspectRatio="xMidYMid meet">
<metadata>
Created by potrace 1.11, written by Peter Selinger 2001-2013
</metadata>
<g transform="translate(0.000000,1888.000000) scale(0.100000,-0.100000)"
fill="#000000" stroke="none">
<path d="M15567 14984 c-1 -1 -51 -5 -112 -9 -60 -3 -117 -8 -125 -10 -8 -2
-44 -7 -80 -10 -36 -4 -68 -9 -71 -10 -3 -2 -28 -7 -55 -11 -61 -8 -262 -57
-329 -80 -27 -9 -54 -17 -60 -18 -32 -5 -226 -88 -329 -140 -103 -53 -263
-150 -316 -193 -8 -6 -51 -40 -95 -75 -471 -375 -818 -978 -1005 -1753 -21
-88 -41 -173 -44 -190 -3 -16 -14 -82 -25 -145 -11 -63 -22 -140 -25 -170 -3
-30 -9 -82 -13 -115 -14 -127 -8 -508 11 -615 3 -14 7 -42 10 -62 3 -21 9 -55
12 -75 3 -21 12 -63 19 -93 8 -30 16 -66 19 -80 8 -42 75 -246 91 -276 8 -16
15 -33 15 -38 0 -6 21 -55 47 -110 131 -283 311 -544 588 -855 71 -80 441
-448 639 -636 563 -534 787 -805 960 -1160 73 -149 105 -237 140 -385 53 -226
63 -490 26 -725 -5 -33 -12 -78 -16 -99 -11 -71 -73 -310 -103 -398 -55 -161
-127 -318 -192 -416 -16 -24 -29 -45 -29 -47 0 -3 -27 -41 -61 -84 -224 -294
-544 -467 -932 -506 -74 -7 -280 -8 -332 0 -100 13 -121 17 -191 35 -360 92
-581 361 -631 767 -15 114 -7 446 11 553 3 14 7 41 10 60 3 19 12 74 21 123 8
48 18 104 21 125 3 20 7 44 9 52 2 8 7 35 10 60 3 25 8 52 10 60 2 8 7 31 10
50 3 19 10 58 15 85 5 28 11 61 14 75 2 14 7 41 11 61 l7 36 -546 0 c-546 0
-546 0 -551 -21 -2 -12 -13 -73 -24 -136 -28 -160 -27 -155 -45 -250 -23 -128
-37 -210 -51 -305 -4 -22 -8 -51 -10 -65 -2 -14 -7 -47 -10 -75 -3 -27 -8 -63
-10 -80 -18 -139 -24 -495 -11 -640 22 -243 69 -451 142 -633 50 -123 141
-285 206 -367 338 -425 858 -637 1568 -639 139 0 347 9 400 18 14 3 48 7 75
10 429 51 863 221 1209 474 154 112 312 263 447 427 361 438 624 1074 730
1770 6 39 12 80 14 93 25 155 26 593 2 762 -65 446 -224 825 -509 1218 -178
246 -447 534 -868 932 -672 634 -929 954 -1096 1368 -33 81 -85 263 -98 342
-3 19 -8 45 -10 58 -22 112 -23 425 -2 538 2 10 7 42 10 69 14 98 58 290 97
417 66 216 162 416 275 576 58 81 197 222 278 282 115 84 333 183 451 204 164
30 220 37 330 38 80 1 253 -10 264 -16 3 -2 27 -7 54 -10 26 -4 57 -10 70 -15
12 -5 40 -14 62 -21 298 -95 483 -335 539 -700 14 -91 16 -447 3 -510 -3 -14
-8 -47 -12 -75 -7 -55 -14 -106 -21 -139 -9 -49 -24 -134 -29 -171 -4 -22 -8
-47 -10 -55 -2 -8 -7 -35 -10 -60 -4 -24 -9 -48 -11 -52 -3 -5 -2 -8 3 -8 13
-1 1056 -1 1080 -1 22 1 31 27 49 145 3 21 8 48 10 60 15 74 37 214 49 311 4
28 8 61 11 75 24 147 24 750 0 789 -2 3 -7 29 -10 56 -16 136 -67 330 -123
465 -171 412 -467 694 -895 854 -92 34 -251 78 -328 91 -19 3 -42 8 -50 10
-15 4 -93 14 -155 20 -16 2 -61 6 -100 10 -62 7 -383 14 -388 9z"/>
<path d="M1426 14863 c-6 -22 -14 -66 -22 -117 -3 -21 -7 -46 -9 -55 -11 -57
-35 -192 -40 -221 -3 -19 -14 -84 -25 -145 -10 -60 -22 -126 -25 -145 -3 -19
-8 -42 -10 -50 -2 -8 -7 -35 -10 -60 -3 -25 -8 -52 -10 -60 -2 -8 -6 -31 -9
-50 -3 -19 -8 -46 -11 -60 -3 -14 -7 -38 -11 -55 l-5 -30 964 1 c877 1 964 -1
961 -15 -5 -22 -42 -228 -49 -271 -3 -19 -10 -62 -16 -95 -6 -33 -13 -71 -15
-85 -3 -14 -13 -72 -24 -130 -10 -58 -21 -121 -24 -140 -3 -19 -8 -46 -11 -60
-3 -14 -12 -68 -21 -120 -9 -52 -18 -104 -20 -115 -6 -28 -14 -74 -20 -110 -2
-16 -9 -52 -14 -80 -11 -54 -33 -180 -55 -315 -8 -47 -17 -98 -20 -115 -10
-55 -34 -190 -40 -220 -2 -16 -10 -57 -15 -90 -6 -33 -13 -69 -15 -80 -1 -11
-12 -72 -24 -135 -11 -63 -23 -131 -26 -150 -3 -19 -10 -62 -16 -95 -6 -33
-13 -71 -15 -85 -5 -27 -29 -162 -40 -220 -3 -19 -8 -45 -9 -57 -2 -12 -6 -34
-9 -50 -3 -15 -8 -44 -11 -63 -3 -19 -8 -42 -10 -50 -2 -8 -7 -35 -10 -60 -3
-25 -8 -52 -11 -61 -2 -9 -7 -35 -9 -58 -2 -23 -6 -45 -9 -49 -2 -4 -7 -29
-10 -57 -4 -27 -9 -57 -11 -65 -2 -8 -7 -31 -10 -50 -3 -19 -19 -111 -36 -205
-17 -93 -32 -181 -34 -195 -3 -14 -7 -36 -9 -50 -3 -14 -8 -41 -10 -60 -3 -19
-8 -46 -11 -60 -3 -14 -7 -38 -10 -55 -5 -28 -77 -434 -89 -499 -3 -16 -8 -50
-12 -75 -3 -25 -10 -62 -14 -81 -5 -19 -11 -53 -15 -74 -3 -21 -14 -89 -25
-150 -38 -211 -70 -394 -75 -428 -2 -15 -6 -35 -9 -45 -3 -10 -8 -38 -11 -63
-3 -25 -8 -52 -10 -60 -2 -8 -7 -33 -10 -55 -3 -23 -8 -52 -10 -65 -3 -14 -7
-38 -10 -55 -3 -16 -10 -52 -15 -80 -5 -27 -11 -61 -14 -75 -2 -14 -7 -41 -10
-60 -3 -19 -8 -48 -11 -65 -14 -82 -76 -433 -81 -455 -3 -14 -7 -38 -9 -55 -3
-16 -11 -65 -19 -110 -9 -44 -18 -95 -21 -112 -3 -18 -7 -48 -10 -65 -3 -18
-8 -40 -10 -48 -2 -8 -7 -35 -10 -60 -3 -25 -8 -52 -11 -61 -3 -10 -6 -31 -9
-49 -2 -17 -6 -43 -9 -58 -3 -15 -8 -40 -11 -57 -27 -160 -41 -236 -50 -290
-27 -148 -42 -234 -55 -310 -9 -57 -13 -76 -25 -135 -5 -28 -12 -67 -20 -125
-4 -22 -8 -47 -10 -55 -2 -8 -7 -31 -10 -50 -3 -19 -15 -87 -26 -150 -11 -63
-22 -126 -24 -140 -3 -14 -7 -38 -11 -53 -3 -16 -7 -38 -9 -50 -4 -29 -24
-146 -30 -177 -3 -14 -7 -38 -10 -55 -2 -16 -7 -41 -10 -55 -3 -14 -7 -38 -10
-55 -4 -28 -40 -240 -51 -295 -27 -146 -36 -200 -40 -225 -3 -16 -9 -52 -14
-78 -6 -26 -10 -50 -10 -52 0 -3 263 -5 585 -5 461 0 585 3 586 13 0 6 3 23 5
37 2 14 23 129 45 255 22 127 42 241 45 255 2 14 7 39 9 55 3 17 7 41 10 55 5
24 13 70 21 115 2 11 6 31 8 45 3 14 8 41 10 60 3 19 8 46 11 60 6 30 22 122
30 170 6 39 23 134 29 166 2 12 7 37 10 55 3 19 8 44 10 55 2 12 7 39 11 60 3
22 10 59 15 84 4 25 15 88 24 140 9 52 18 106 21 120 2 13 7 42 11 65 3 22 7
45 8 50 5 21 25 126 31 165 2 14 10 63 19 110 8 47 17 101 21 120 3 19 10 58
15 85 5 28 12 67 16 89 3 21 8 48 10 60 7 35 24 135 50 286 9 52 18 104 21
115 2 11 6 29 7 40 9 54 26 152 30 170 5 27 14 82 21 125 3 19 13 73 22 120 9
47 17 92 18 100 2 16 15 93 21 125 7 35 13 67 39 220 14 83 28 161 31 175 12
67 44 248 49 275 2 17 7 40 9 51 2 12 7 37 10 55 3 19 17 99 31 179 14 80 28
159 31 175 2 17 16 93 30 170 14 77 27 151 29 165 2 14 8 50 14 80 6 30 13 71
16 90 3 19 7 46 10 60 3 14 7 39 10 55 3 17 7 41 10 55 3 14 10 52 15 85 5 33
12 71 15 85 3 14 10 52 15 85 5 33 12 71 15 85 6 30 22 122 30 168 14 84 13
79 70 397 3 17 8 46 10 65 3 19 10 55 15 80 10 44 45 250 56 320 3 19 8 44 11
54 3 11 7 35 9 54 2 18 5 41 8 50 3 9 8 37 11 62 3 25 8 52 10 60 2 8 7 31 10
50 3 19 10 58 15 85 5 28 12 64 14 80 16 101 75 434 86 485 5 25 12 63 15 85
5 39 9 60 20 115 2 14 6 36 9 50 2 14 11 63 19 110 9 47 18 101 21 120 3 19
21 125 41 235 62 346 136 768 142 810 3 22 9 49 13 61 l8 21 956 0 c526 0 959
2 962 5 4 5 20 87 30 153 2 17 13 77 24 135 17 96 22 121 35 200 2 14 7 41 10
60 9 51 44 251 50 280 9 45 25 134 31 175 3 22 8 43 11 48 2 4 -1125 7 -2506
7 -2382 0 -2510 -1 -2515 -17z"/>
<path d="M6955 14433 c3 -247 7 -605 10 -798 2 -192 7 -555 10 -805 3 -250 7
-621 10 -825 5 -401 13 -1028 20 -1660 7 -554 13 -1079 20 -1620 3 -253 8
-624 10 -825 3 -201 7 -574 10 -830 3 -256 7 -616 10 -800 4 -295 8 -638 20
-1565 2 -137 4 -256 4 -262 1 -10 180 -13 861 -13 473 0 860 1 860 3 0 5 57
163 235 652 92 253 176 485 187 515 10 30 22 62 25 70 3 8 7 20 9 25 1 6 14
42 29 80 15 39 44 117 65 175 20 58 85 238 144 400 60 162 126 345 148 405 21
61 45 126 52 145 8 19 37 100 66 180 29 80 58 161 66 180 7 19 31 86 53 148
90 247 121 335 186 512 37 102 82 226 100 275 18 50 63 173 99 275 37 102 72
196 78 210 5 14 32 86 58 160 27 74 62 171 78 215 16 44 82 226 146 405 65
179 121 334 126 345 15 36 47 125 260 715 117 322 218 599 226 617 8 17 14 36
14 42 0 6 4 19 9 29 6 9 143 386 306 837 163 451 300 829 305 840 4 11 29 79
55 150 26 72 50 139 55 150 4 11 31 85 60 165 114 320 216 599 229 630 5 14
60 165 121 335 61 171 115 319 120 330 19 46 80 218 80 226 0 5 -233 9 -539 9
l-539 0 -5 -22 c-3 -13 -19 -59 -35 -103 -29 -78 -190 -524 -342 -945 -154
-428 -212 -588 -220 -605 -4 -11 -72 -198 -150 -415 -77 -217 -147 -411 -155
-430 -8 -19 -64 -174 -125 -345 -61 -170 -115 -318 -120 -327 -6 -10 -10 -24
-10 -32 0 -7 -7 -27 -15 -42 -8 -16 -15 -36 -15 -45 0 -9 -3 -19 -7 -23 -5 -4
-8 -11 -9 -14 0 -4 -6 -20 -12 -35 -7 -16 -12 -32 -12 -36 0 -5 -9 -30 -20
-57 -11 -27 -60 -164 -110 -304 -50 -140 -95 -264 -100 -275 -5 -11 -60 -159
-121 -330 -61 -170 -128 -357 -149 -415 -21 -58 -77 -213 -125 -345 -48 -132
-96 -265 -107 -295 -30 -86 -135 -374 -263 -725 -64 -176 -118 -327 -120 -335
-2 -8 -23 -64 -45 -125 -23 -60 -46 -126 -52 -145 -6 -19 -13 -39 -16 -45 -4
-5 -7 -14 -8 -20 -3 -11 -110 -310 -154 -425 -46 -121 -180 -494 -184 -510 -2
-8 -14 -40 -26 -70 -12 -30 -24 -62 -26 -70 -3 -15 -127 -356 -189 -525 -19
-49 -78 -212 -132 -362 -54 -149 -99 -271 -100 -270 -2 3 -10 637 -18 1367 -3
228 -7 647 -10 930 -3 283 -8 691 -10 905 -10 986 -23 2105 -30 2795 -3 278
-8 674 -10 880 -2 206 -7 629 -10 940 -4 311 -8 714 -10 895 -2 182 -4 336 -4
343 -1 9 -126 12 -591 12 l-591 0 6 -447z"/>
</g>
</svg>
